{"title":"Heer Raanjha 1970 2CD DvDrip ~ Musical | Romance | Drama ~ [RdY]","uid":6647103,"size":1466906624,"categoryP":"video","categoryS":"movies","magnet":"?xt=urn:btih:1ede5d29b1945a9c3d1fea9a11d360d650c3c90a&amp;dn=Heer+Raanjha+1970+2CD+DvDrip+%7E+Musical+%7C+Romance+%7C+Drama+%7E+%5BRdY%5D&amp;tr=udp%3A%2F%2Ftracker.openbittorrent.com%3A80&amp;tr=udp%3A%2F%2Fopen.demonii.com%3A1337&amp;tr=udp%3A%2F%2Ftracker.coppersurfer.tk%3A6969&amp;tr=udp%3A%2F%2Fexodus.desync.com%3A6969","seeders":0,"leechers":1,"uploader":"ilyas2000pk","files":-1,"time":1314988333,"description":"Color\nC\n\nRelease Date\nJune 19, 1970\n\nGenre\nMusical  /  Romance  /  Family Drama\n\nProducer\nChetan Anand\n\nDirector\nChetan Anand\n\nStar Cast\nRaj Kumar...... Ranjha\nPriya Rajvansh...... Heer\nJeevan...... Kaazi\nAjit...... Saida\nPran...... Chhote Choudhury\nJayant...... Choudhury\nTun Tun...... Allah Rakhi\nPrithviraj Kapoor...... The King\nUlhas\nBaby Tabassum\nPadma\nVeena\nZeb Rehman\nNana Palsikar\nAchla Sachdev\nSonia Sahni...... (Guest Appearance)\nNiranajan Sharma\nKamini Kaushal\nPadma Khanna\nSapru\nIndrani Mukherjee\nDulari\nMumtaz Begum\n\nSingers\nLata Mangeshkar\nMohammed Rafi\nHemlata\nKrishna K\nBalbir Bittu\nShamshad Begum\nNoor Jahan\n\nLyricist\nKaifi Azmi\n\nMusic Director\nMadan Mohan\n\nName : Heer Raanjha 1970 2CD DvDrip ~ Musical | Romance | Drama ~ [RdY]\nRipper : Ajit \nFormat : AVI\nFormat/Info : Audio Video Interleave\nFile size : 1.37 GiB\nDuration : 2h 20mn\n\nVideo\nID : 0\nFormat : MPEG-4 Visual\nFormat profile : Advanced Simple@L5\nFormat settings, BVOP : 1\nFormat settings, QPel : Yes\nFormat settings, GMC : No warppoints\nFormat settings, Matrix : Default (MPEG)\nCodec ID : XVID\nCodec ID/Hint : XviD\nDuration : 2h 20mn\nBit rate : 1 159 Kbps\nWidth : 608 pixels\nHeight : 448 pixels\nDisplay aspect ratio : 4:3\nFrame rate : 23.976 fps\nColor space : YUV\nChroma subsampling : 4.2.0\nBit depth : 8 bits\nScan type : Progressive\nCompression mode : Lossy\nBits/(Pixel*Frame) : 0.178\nStream size : 1.14 GiB (83%)\nWriting library : XviD 1.2.1 (UTC 2008-12-04)\n\nAudio\nID : 1\nFormat : AC-3\nFormat/Info : Audio Coding 3\nMode extension : CM (complete main)\nCodec ID : 2000\nDuration : 2h 20mn\nBit rate mode : Constant\nBit rate : 224 Kbps\nChannel(s) : 6 channels\nChannel positions : Front: L C R, Side: L R, LFE\nSampling rate : 48.0 KHz\nBit depth : 16 bits\nCompression mode : Lossy\nStream size : 225 MiB (16%)\nAlignment : Split accross interleaves\nInterleave, duration : 42 ms (1.00 video frame)\nInterleave, preload duration : 500 ms\n\n\n\n","torrent":{"xt":"urn:btih:1ede5d29b1945a9c3d1fea9a11d360d650c3c90a","amp;dn":"Heer+Raanjha+1970+2CD+DvDrip+%7E+Musical+%7C+Romance+%7C+Drama+%7E+%5BRdY%5D","amp;tr":["udp%3A%2F%2Ftracker.openbittorrent.com%3A80","udp%3A%2F%2Fopen.demonii.com%3A1337","udp%3A%2F%2Ftracker.coppersurfer.tk%3A6969","udp%3A%2F%2Fexodus.desync.com%3A6969"],"infoHash":"1ede5d29b1945a9c3d1fea9a11d360d650c3c90a","infoHashBuffer":{"type":"Buffer","data":[30,222,93,41,177,148,90,156,61,31,234,154,17,211,96,214,80,195,201,10]},"announce":[],"urlList":[]}}